<svg width="389.825px" height="125.6px" xmlns="http://www.w3.org/2000/svg" viewBox="55.087500000000006 12.200000000000003 389.825 125.6" style="background: rgba(0, 0, 0, 0);" preserveAspectRatio="xMidYMid"><defs><filter id="editing-hole" x="-100%" y="-100%" width="300%" height="300%"><feFlood flood-color="#000000" result="black"></feFlood><feMorphology operator="dilate" radius="2" in="SourceGraphic" result="erode"></feMorphology><feGaussianBlur in="erode" stdDeviation="4" result="blur"></feGaussianBlur><feOffset in="blur" dx="2" dy="2" result="offset"></feOffset><feComposite operator="atop" in="offset" in2="black" result="merge"></feComposite><feComposite operator="in" in="merge" in2="SourceGraphic" result="inner-shadow"></feComposite></filter></defs><g filter="url(#editing-hole)"><g transform="translate(112.52499008178711, 105.1150016784668)"><path d="M23.68-33.92L23.68-33.92Q28.42-33.92 32.26-31.78L32.26-31.78L32.26-31.78Q36.10-29.63 38.27-25.73L38.27-25.73L38.27-25.73Q40.45-21.82 40.45-16.83L40.45-16.83L40.45-16.83Q40.45-11.78 38.27-7.87L38.27-7.87L38.27-7.87Q36.10-3.97 32.29-1.82L32.29-1.82L32.29-1.82Q28.48 0.32 23.68 0.32L23.68 0.32L23.68 0.32Q19.58 0.32 16.29-1.38L16.29-1.38L16.29-1.38Q12.99-3.07 10.88-6.34L10.88-6.34L10.88 12.42L6.34 12.42L6.34-33.66L10.69-33.66L10.69-27.01L10.69-27.01Q12.74-30.34 16.10-32.13L16.10-32.13L16.10-32.13Q19.46-33.92 23.68-33.92L23.68-33.92ZM23.36-3.71L23.36-3.71Q26.88-3.71 29.76-5.34L29.76-5.34L29.76-5.34Q32.64-6.98 34.27-9.98L34.27-9.98L34.27-9.98Q35.90-12.99 35.90-16.83L35.90-16.83L35.90-16.83Q35.90-20.67 34.27-23.65L34.27-23.65L34.27-23.65Q32.64-26.62 29.76-28.29L29.76-28.29L29.76-28.29Q26.88-29.95 23.36-29.95L23.36-29.95L23.36-29.95Q19.78-29.95 16.93-28.29L16.93-28.29L16.93-28.29Q14.08-26.62 12.45-23.65L12.45-23.65L12.45-23.65Q10.82-20.67 10.82-16.83L10.82-16.83L10.82-16.83Q10.82-12.99 12.45-9.98L12.45-9.98L12.45-9.98Q14.08-6.98 16.93-5.34L16.93-5.34L16.93-5.34Q19.78-3.71 23.36-3.71L23.36-3.71ZM63.49 0.32L63.49 0.32Q58.62 0.32 54.72-1.89L54.72-1.89L54.72-1.89Q50.82-4.10 48.58-8L48.58-8L48.58-8Q46.34-11.90 46.34-16.83L46.34-16.83L46.34-16.83Q46.34-21.76 48.58-25.66L48.58-25.66L48.58-25.66Q50.82-29.57 54.72-31.74L54.72-31.74L54.72-31.74Q58.62-33.92 63.49-33.92L63.49-33.92L63.49-33.92Q68.35-33.92 72.26-31.74L72.26-31.74L72.26-31.74Q76.16-29.57 78.37-25.66L78.37-25.66L78.37-25.66Q80.58-21.76 80.58-16.83L80.58-16.83L80.58-16.83Q80.58-11.90 78.37-8L78.37-8L78.37-8Q76.16-4.10 72.26-1.89L72.26-1.89L72.26-1.89Q68.35 0.32 63.49 0.32L63.49 0.32ZM63.49-3.71L63.49-3.71Q67.07-3.71 69.92-5.34L69.92-5.34L69.92-5.34Q72.77-6.98 74.37-9.98L74.37-9.98L74.37-9.98Q75.97-12.99 75.97-16.83L75.97-16.83L75.97-16.83Q75.97-20.67 74.37-23.68L74.37-23.68L74.37-23.68Q72.77-26.69 69.92-28.32L69.92-28.32L69.92-28.32Q67.07-29.95 63.49-29.95L63.49-29.95L63.49-29.95Q59.90-29.95 57.06-28.32L57.06-28.32L57.06-28.32Q54.21-26.69 52.58-23.68L52.58-23.68L52.58-23.68Q50.94-20.67 50.94-16.83L50.94-16.83L50.94-16.83Q50.94-12.99 52.58-9.98L52.58-9.98L52.58-9.98Q54.21-6.98 57.06-5.34L57.06-5.34L57.06-5.34Q59.90-3.71 63.49-3.71L63.49-3.71ZM94.21-27.07L94.21-27.07Q95.81-30.46 98.98-32.19L98.98-32.19L98.98-32.19Q102.14-33.92 106.82-33.92L106.82-33.92L106.82-29.50L105.73-29.57L105.73-29.57Q100.42-29.57 97.41-26.30L97.41-26.30L97.41-26.30Q94.40-23.04 94.40-17.15L94.40-17.15L94.40 0L89.86 0L89.86-33.66L94.21-33.66L94.21-27.07ZM131.65-5.31L133.25-2.05L133.25-2.05Q131.97-0.90 130.08-0.29L130.08-0.29L130.08-0.29Q128.19 0.32 126.14 0.32L126.14 0.32L126.14 0.32Q121.41 0.32 118.85-2.24L118.85-2.24L118.85-2.24Q116.29-4.80 116.29-9.47L116.29-9.47L116.29-29.82L110.27-29.82L110.27-33.66L116.29-33.66L116.29-41.02L120.83-41.02L120.83-33.66L131.07-33.66L131.07-29.82L120.83-29.82L120.83-9.73L120.83-9.73Q120.83-6.72 122.34-5.15L122.34-5.15L122.34-5.15Q123.84-3.58 126.66-3.58L126.66-3.58L126.66-3.58Q128.06-3.58 129.38-4.03L129.38-4.03L129.38-4.03Q130.69-4.48 131.65-5.31L131.65-5.31ZM152.64-43.97L152.64-43.97Q149.70-43.97 148.19-42.37L148.19-42.37L148.19-42.37Q146.69-40.77 146.69-37.63L146.69-37.63L146.69-33.66L157.06-33.66L157.06-29.82L146.82-29.82L146.82 0L142.27 0L142.27-29.82L136.26-29.82L136.26-33.66L142.27-33.66L142.27-37.82L142.27-37.82Q142.27-42.43 144.93-45.12L144.93-45.12L144.93-45.12Q147.58-47.81 152.45-47.81L152.45-47.81L152.45-47.81Q154.37-47.81 156.16-47.26L156.16-47.26L156.16-47.26Q157.95-46.72 159.17-45.70L159.17-45.70L157.63-42.30L157.63-42.30Q155.65-43.97 152.64-43.97L152.64-43.97ZM176.96 0.32L176.96 0.32Q172.10 0.32 168.19-1.89L168.19-1.89L168.19-1.89Q164.29-4.10 162.05-8L162.05-8L162.05-8Q159.81-11.90 159.81-16.83L159.81-16.83L159.81-16.83Q159.81-21.76 162.05-25.66L162.05-25.66L162.05-25.66Q164.29-29.57 168.19-31.74L168.19-31.74L168.19-31.74Q172.10-33.92 176.96-33.92L176.96-33.92L176.96-33.92Q181.82-33.92 185.73-31.74L185.73-31.74L185.73-31.74Q189.63-29.57 191.84-25.66L191.84-25.66L191.84-25.66Q194.05-21.76 194.05-16.83L194.05-16.83L194.05-16.83Q194.05-11.90 191.84-8L191.84-8L191.84-8Q189.63-4.10 185.73-1.89L185.73-1.89L185.73-1.89Q181.82 0.32 176.96 0.32L176.96 0.32ZM176.96-3.71L176.96-3.71Q180.54-3.71 183.39-5.34L183.39-5.34L183.39-5.34Q186.24-6.98 187.84-9.98L187.84-9.98L187.84-9.98Q189.44-12.99 189.44-16.83L189.44-16.83L189.44-16.83Q189.44-20.67 187.84-23.68L187.84-23.68L187.84-23.68Q186.24-26.69 183.39-28.32L183.39-28.32L183.39-28.32Q180.54-29.95 176.96-29.95L176.96-29.95L176.96-29.95Q173.38-29.95 170.53-28.32L170.53-28.32L170.53-28.32Q167.68-26.69 166.05-23.68L166.05-23.68L166.05-23.68Q164.42-20.67 164.42-16.83L164.42-16.83L164.42-16.83Q164.42-12.99 166.05-9.98L166.05-9.98L166.05-9.98Q167.68-6.98 170.53-5.34L170.53-5.34L170.53-5.34Q173.38-3.71 176.96-3.71L176.96-3.71ZM203.33 0L203.33-47.49L207.87-47.49L207.87 0L203.33 0ZM220.54 0L220.54-33.66L225.09-33.66L225.09 0L220.54 0ZM222.85-41.02L222.85-41.02Q221.44-41.02 220.48-41.98L220.48-41.98L220.48-41.98Q219.52-42.94 219.52-44.29L219.52-44.29L219.52-44.29Q219.52-45.57 220.48-46.53L220.48-46.53L220.48-46.53Q221.44-47.49 222.85-47.49L222.85-47.49L222.85-47.49Q224.26-47.49 225.22-46.56L225.22-46.56L225.22-46.56Q226.18-45.63 226.18-44.35L226.18-44.35L226.18-44.35Q226.18-42.94 225.22-41.98L225.22-41.98L225.22-41.98Q224.26-41.02 222.85-41.02L222.85-41.02ZM251.52 0.32L251.52 0.32Q246.66 0.32 242.75-1.89L242.75-1.89L242.75-1.89Q238.85-4.10 236.61-8L236.61-8L236.61-8Q234.37-11.90 234.37-16.83L234.37-16.83L234.37-16.83Q234.37-21.76 236.61-25.66L236.61-25.66L236.61-25.66Q238.85-29.57 242.75-31.74L242.75-31.74L242.75-31.74Q246.66-33.92 251.52-33.92L251.52-33.92L251.52-33.92Q256.38-33.92 260.29-31.74L260.29-31.74L260.29-31.74Q264.19-29.57 266.40-25.66L266.40-25.66L266.40-25.66Q268.61-21.76 268.61-16.83L268.61-16.83L268.61-16.83Q268.61-11.90 266.40-8L266.40-8L266.40-8Q264.19-4.10 260.29-1.89L260.29-1.89L260.29-1.89Q256.38 0.32 251.52 0.32L251.52 0.32ZM251.52-3.71L251.52-3.71Q255.10-3.71 257.95-5.34L257.95-5.34L257.95-5.34Q260.80-6.98 262.40-9.98L262.40-9.98L262.40-9.98Q264.00-12.99 264.00-16.83L264.00-16.83L264.00-16.83Q264.00-20.67 262.40-23.68L262.40-23.68L262.40-23.68Q260.80-26.69 257.95-28.32L257.95-28.32L257.95-28.32Q255.10-29.95 251.52-29.95L251.52-29.95L251.52-29.95Q247.94-29.95 245.09-28.32L245.09-28.32L245.09-28.32Q242.24-26.69 240.61-23.68L240.61-23.68L240.61-23.68Q238.98-20.67 238.98-16.83L238.98-16.83L238.98-16.83Q238.98-12.99 240.61-9.98L240.61-9.98L240.61-9.98Q242.24-6.98 245.09-5.34L245.09-5.34L245.09-5.34Q247.94-3.71 251.52-3.71L251.52-3.71Z" fill="#ffffff"></path></g></g><style>text {
  font-size: 64px;
  font-family: Arial Black;
  dominant-baseline: central;
  text-anchor: middle;
}</style></svg>